<svg width="139" height="27" viewBox="0 0 139 27" fill="none" xmlns="http://www.w3.org/2000/svg">
<g clip-path="url(#clip0_1_177)">
<path d="M138.349 10.5757C138.315 11.2398 137.75 11.7509 137.085 11.7172C136.421 11.6836 135.91 11.118 135.944 10.4539C135.977 9.78981 136.543 9.27873 137.207 9.31238C137.871 9.34602 138.382 9.91163 138.349 10.5757Z" fill="#A7A7A7"/>
<path d="M103.319 16.4839C103.371 16.2864 103.286 16.1047 103.109 16.0334L96.4965 13.382C95.6042 13.0242 95.1789 12.1121 95.4431 11.1212C95.7802 9.85539 97.1155 8.88298 98.4256 8.94935L107.134 9.39048L106.645 11.2256L97.9368 10.7845C97.6756 10.7713 97.4098 10.9651 97.3425 11.2174C97.2901 11.4149 97.3744 11.5966 97.5526 11.6679L104.165 14.3193C105.057 14.6772 105.482 15.5892 105.218 16.5801C104.881 17.846 103.545 18.8183 102.235 18.7519L93.5277 18.3108L94.0165 16.4757L102.724 16.9168C102.985 16.93 103.252 16.7362 103.319 16.4839Z" fill="#A7A7A7"/>
<path d="M82.7987 8.00267L80.2526 17.5608L78.3527 17.4646L80.8993 7.90645L82.7987 8.00267Z" fill="#A7A7A7"/>
<path d="M133.132 10.5524C134.706 10.6321 135.653 11.9292 135.248 13.4495L133.456 20.1784L131.556 20.0822L133.349 13.3533C133.484 12.8465 133.168 12.4141 132.644 12.3876L129.161 12.2112L127.124 19.8577L125.225 19.7615L127.262 12.1149L122.83 11.8904L120.793 19.5369L118.894 19.4407L120.931 11.7942L122.83 11.8904L123.319 10.0553L133.132 10.5524Z" fill="#A7A7A7"/>
<path fill-rule="evenodd" clip-rule="evenodd" d="M51.576 6.57594C53.1497 6.65566 54.0971 7.95274 53.6922 9.47301L52.3883 14.3668L50.489 14.2706L50.0001 16.1057L42.719 15.7369C41.1701 15.6584 40.228 14.4003 40.5853 12.9109L40.6033 12.8398L41.907 7.94606L43.8064 8.04228L44.2952 6.20711L51.576 6.57594ZM42.5027 12.936L42.4913 12.9833C42.3876 13.4694 42.6998 13.876 43.2079 13.9017L50.489 14.2706L51.7924 9.37676C51.9275 8.87002 51.6119 8.43769 51.0872 8.41111L43.8064 8.04228L42.5027 12.936Z" fill="#A7A7A7"/>
<path fill-rule="evenodd" clip-rule="evenodd" d="M76.9014 7.85891C78.4751 7.93863 79.422 9.23568 79.0171 10.756L77.7137 15.6498L75.8143 15.5535L75.3255 17.3887L68.0441 17.0198C66.4954 16.9414 65.5532 15.6833 65.9103 14.1939L65.9284 14.1228L67.2323 9.22903L69.1316 9.32525L69.6205 7.49008L76.9014 7.85891ZM67.8277 14.219L67.8166 14.2663C67.7129 14.7524 68.025 15.159 68.5329 15.1847L75.8143 15.5535L77.1178 10.6597C77.2529 10.153 76.9373 9.72067 76.4125 9.69408L69.1316 9.32525L67.8277 14.219Z" fill="#A7A7A7"/>
<path d="M86.2262 10.1911C85.7015 10.1646 85.1668 10.5538 85.0321 11.0606L82.4247 20.8481L80.5254 20.7519L83.1328 10.9644C83.5377 9.4441 85.1413 8.27625 86.7151 8.35597L93.046 8.67669L92.5572 10.5119L94.4565 10.6081L93.1531 15.5018C92.7482 17.0221 91.144 18.1899 89.5708 18.1102L85.1387 17.8857L85.6275 16.0506L90.0596 16.2751C90.5839 16.3017 91.1186 15.9124 91.2537 15.4056L92.5572 10.5119L86.2262 10.1911Z" fill="#A7A7A7"/>
<path d="M55.9252 12.531C55.7905 13.0378 56.1062 13.4702 56.6304 13.4967L61.0625 13.7213L60.5737 15.5564L56.1416 15.3319C54.5683 15.2522 53.6209 13.9551 54.0258 12.4348L55.0035 8.76449L56.9029 8.86071L57.3917 7.02555L63.7232 7.34629C65.2969 7.42601 66.2438 8.72305 65.8389 10.2434L63.9651 17.2781C63.5602 18.7984 61.956 19.9662 60.3823 19.8865L54.2884 19.5778L54.7778 17.7427L60.8716 18.0514C61.3959 18.078 61.9306 17.6887 62.0657 17.1819L63.9396 10.1471C64.0747 9.6404 63.7591 9.20803 63.2343 9.18145L56.9029 8.86071L55.9252 12.531Z" fill="#A7A7A7"/>
<path d="M31.7272 12.3901L33.5198 5.66121L31.6204 5.56499L29.8278 12.2939C29.4228 13.8142 30.3701 15.1113 31.9435 15.191L38.7619 15.5364L39.2508 13.7012L32.4324 13.3558C31.9079 13.3293 31.5922 12.8969 31.7272 12.3901Z" fill="#A7A7A7"/>
<path d="M108.307 16.4245L108.296 16.4718C108.192 16.9579 108.505 17.3645 109.013 17.3902L116.294 17.7591L118.331 10.1126L120.23 10.2088L118.193 17.8553L116.294 17.7591L115.805 19.5942L108.524 19.2254C106.975 19.1469 106.033 17.8889 106.39 16.3994L106.408 16.3283L108.201 9.59943L110.1 9.69564L108.307 16.4245Z" fill="#A7A7A7"/>
<path fill-rule="evenodd" clip-rule="evenodd" d="M9.15105 0.414201C9.41669 0.427658 9.62111 0.653903 9.60765 0.919534L9.42744 4.477C9.42201 4.58412 9.54882 4.64431 9.62841 4.57242L13.6647 0.925391C13.8542 0.754164 14.104 0.665143 14.359 0.678026L18.5712 0.891408C18.6988 0.897889 18.8186 0.954794 18.9042 1.04954L20.274 2.56554C20.4523 2.76287 20.4368 3.06735 20.2395 3.24566L18.2858 5.01099C18.2062 5.0829 18.2533 5.21511 18.3604 5.22055L22.1997 5.41504C22.3273 5.42152 22.447 5.47843 22.5327 5.57318L23.9025 7.08919C24.0807 7.28652 24.0653 7.59097 23.868 7.76928L21.8773 9.56806C21.7786 9.65719 21.7709 9.80947 21.86 9.90811L23.336 11.5415C23.7494 11.9991 23.9641 12.6022 23.9329 13.2181C23.9017 13.834 23.6271 14.4122 23.1696 14.8257L17.6109 19.8483C17.4214 20.0196 17.1716 20.1085 16.9166 20.0957L15.391 20.0184C15.1253 20.0049 14.9209 19.7787 14.9344 19.5131L15.1146 15.9556C15.12 15.8485 14.9932 15.7883 14.9136 15.8602L10.8774 19.5072C10.6879 19.6784 10.4381 19.7674 10.183 19.7546L5.97079 19.5412C5.84323 19.5347 5.72345 19.4778 5.63783 19.383L4.26804 17.867C4.08977 17.6697 4.1052 17.3653 4.30249 17.1869L6.25619 15.4216C6.33578 15.3497 6.28872 15.2175 6.1816 15.212L2.34231 15.0176C2.21477 15.0111 2.095 14.9542 2.00939 14.8594L0.639578 13.3434C0.461311 13.1461 0.476734 12.8416 0.67403 12.6633L2.66476 10.8645C2.76341 10.7754 2.77113 10.6231 2.68199 10.5245L1.20606 8.89105C0.792646 8.43347 0.577923 7.8304 0.609122 7.21452C0.640321 6.59864 0.914889 6.02036 1.37242 5.6069L6.9311 0.584284C7.1206 0.413057 7.37041 0.324037 7.62547 0.336919L9.15105 0.414201ZM10.409 4.81774C9.77115 4.78543 9.14632 5.00798 8.67252 5.43611L3.27472 10.3134C3.11558 10.4572 3.20974 10.7216 3.42395 10.7325L10.4393 11.0879C10.6535 11.0988 10.7476 11.3632 10.5886 11.507L6.90317 14.837C6.74404 14.9809 6.83818 15.2453 7.0524 15.2562L14.1331 15.6148C14.7709 15.6472 15.3957 15.4246 15.8695 14.9965L21.2673 10.1192C21.4165 9.9844 21.3431 9.74343 21.1569 9.70488L21.1181 9.70007L14.1027 9.34468C13.8885 9.33383 13.7943 9.06939 13.9535 8.92556L17.6389 5.59556C17.798 5.45175 17.7039 5.18732 17.4896 5.17644L10.409 4.81774Z" fill="#A7A7A7"/>
</g>
<defs>
<clipPath id="clip0_1_177">
<rect width="137.733" height="19.2634" fill="white" transform="translate(0.974594) rotate(2.9)"/>
</clipPath>
</defs>
</svg>
