<svg width="84" height="42" viewBox="0 0 84 42" fill="none" xmlns="http://www.w3.org/2000/svg">
<g clip-path="url(#clip0_1_231)">
<path d="M47.9192 8.89878C48.0723 9.03152 48.2638 9.11397 48.4699 9.04964C50.2582 8.4908 51.9982 7.78034 53.5838 6.77208C53.7745 6.65082 53.9093 6.39613 53.9695 6.1877C54.0381 5.94944 54.0496 5.62833 53.9634 5.39148C53.8917 5.19509 53.7758 4.96737 53.5694 4.88353C53.3719 4.80331 53.1836 4.8235 53.0012 4.93942C52.4931 5.26262 51.9676 5.55681 51.4281 5.82413C50.4033 6.31389 49.3351 6.70117 48.2516 7.03974C47.7818 7.18654 47.5728 7.81048 47.6375 8.25787C47.6702 8.48378 47.7395 8.74305 47.9192 8.89878Z" fill="#A7A7A7"/>
<path d="M77.0722 7.32624C76.9856 7.1734 76.8519 6.99065 76.6546 6.98835C76.4461 6.98598 76.3202 7.10515 76.1857 7.25098C75.5101 7.98438 74.9799 8.83604 74.3097 9.57307C74.0876 9.80165 73.8496 10.0128 73.5944 10.2042C73.6649 10.0229 73.7372 9.84246 73.8144 9.66394C74.0517 9.11333 74.3211 8.57719 74.6185 8.05667C74.7353 7.86007 74.8482 7.66655 74.918 7.44312C75.0154 7.13244 74.9921 6.72289 74.8417 6.43195C74.745 6.24474 74.4965 5.98789 74.2543 6.11657C74.1208 6.18753 74.0422 6.24855 73.9399 6.37114C73.9071 6.41043 73.8761 6.45135 73.8445 6.49172C73.7713 6.58643 73.6986 6.68161 73.626 6.7772C73.4803 6.96988 73.3364 7.16412 73.1938 7.35955C72.9225 7.73204 72.6568 8.10864 72.3916 8.48542C71.8718 9.22289 71.3521 9.9606 70.7908 10.6671C70.6349 10.8634 70.4764 11.0575 70.3136 11.2489C70.4032 11.033 70.4892 10.8156 70.5729 10.5974C70.9032 9.73226 71.1956 8.85293 71.544 7.99457C71.6458 7.74384 71.7523 7.49474 71.8649 7.2486C71.9189 7.13015 71.9747 7.01243 72.0317 6.89551C72.0623 6.83298 72.0952 6.77127 72.1246 6.70824C72.2113 6.524 72.2456 6.33598 72.2796 6.13541C72.3146 5.92418 72.2648 5.58482 72.1574 5.39489C72.0594 5.2213 71.9435 5.09949 71.7398 5.05698C71.4268 4.99166 71.1854 5.41435 71.0165 5.62651C70.905 5.76641 70.7935 5.90623 70.6819 6.04585C70.4358 6.35392 70.1884 6.66153 69.941 6.96882C69.4114 7.6271 68.88 8.28422 68.3491 8.94177C67.9326 9.4577 67.5155 9.97315 67.0996 10.49C67.2204 10.0266 67.3382 9.56184 67.4536 9.09654C67.5573 8.67853 67.6638 8.26102 67.7615 7.84175C67.8714 7.37199 67.8699 6.77186 67.5089 6.39996C67.2705 6.15419 66.901 6.10838 66.6304 6.3369C66.3741 6.55322 66.2428 6.90439 66.0879 7.19627C65.9772 7.40507 65.8672 7.61388 65.7566 7.82284C65.5498 8.21394 65.343 8.60508 65.135 8.99568C64.7613 9.69833 64.3846 10.3999 63.9859 11.0892C63.6128 11.7278 63.2177 12.3692 62.7205 12.9186C62.5576 13.0835 62.3808 13.2344 62.1844 13.3578C62.0422 13.4297 61.8928 13.4835 61.7367 13.516C61.7378 13.5081 61.7384 13.5002 61.7396 13.4923C61.7433 13.471 61.7476 13.4497 61.752 13.4285C61.8015 13.1919 61.8658 12.9584 61.9374 12.7275C61.9729 12.6115 62.0119 12.4963 62.051 12.3814L62.0519 12.3788C62.0758 12.3132 62.0998 12.2478 62.1243 12.1825C62.4706 11.264 62.8843 10.3704 63.325 9.49409C63.4206 9.30446 63.5168 9.11508 63.6173 8.92802C63.721 8.73553 63.7467 8.49347 63.747 8.28063C63.7478 8.08197 63.7249 7.85397 63.6249 7.6773C63.5611 7.56493 63.4821 7.45923 63.3706 7.39021C63.2163 7.29448 63.0108 7.34835 62.8791 7.45255C61.709 8.37744 60.5525 9.32128 59.4298 10.3035L59.4296 10.3005C59.4305 10.2724 59.4308 10.2443 59.4317 10.2163C59.4346 10.1115 59.4399 10.0067 59.4475 9.90203C59.4551 9.79793 59.4651 9.69395 59.4769 9.59031C59.4827 9.5414 59.5004 9.43792 59.5103 9.37384C59.5405 9.22552 59.5725 9.07795 59.614 8.93215C59.628 8.88357 59.6439 8.83591 59.6591 8.78789C59.6791 8.73286 59.7147 8.63457 59.7331 8.5907C59.7616 8.52347 59.7931 8.45783 59.8246 8.39196C59.9899 8.1472 60.1522 7.90026 60.3089 7.64934C60.4467 7.42793 60.5316 7.20286 60.554 6.93995C60.5731 6.71172 60.548 6.40528 60.4318 6.19944C60.3453 6.04657 60.2115 5.86385 60.0142 5.86152C59.8116 5.8592 59.6708 5.97344 59.546 6.12414C59.3055 6.4142 59.103 6.72648 58.9314 7.05428C58.3618 7.87263 57.7395 8.65071 57.0682 9.39228C56.9889 9.47987 56.909 9.56704 56.829 9.65415C56.7763 9.28862 56.6599 8.91513 56.4655 8.60808C56.2408 8.25309 55.9399 7.97026 55.5073 7.91303C55.1318 7.8634 54.7815 8.0246 54.464 8.20008C54.1441 8.37691 53.8613 8.61463 53.5977 8.866C52.9506 9.4829 52.383 10.1742 51.8554 10.8945C51.9209 10.7443 51.9869 10.5941 52.0486 10.4424C52.1825 10.1133 52.2474 9.7182 52.1326 9.37033C52.0527 9.12827 51.9232 8.89554 51.6673 8.81951C51.2622 8.69921 50.9479 9.12431 50.7261 9.40154C50.4574 9.73757 50.1818 10.0663 49.9258 10.4126C49.5955 10.8593 49.2798 11.3168 48.9682 11.7767C48.607 12.3098 48.2519 12.847 47.8966 13.384C48.1183 12.8106 48.3134 12.2197 48.3774 11.6119C48.4249 11.1617 48.3767 10.6063 48.0568 10.2547C47.8207 9.99505 47.5024 9.95198 47.1769 10.0438C47.0019 10.0931 46.8402 10.1875 46.682 10.2736C46.5238 10.3597 46.3726 10.4575 46.2253 10.5608C45.9736 10.7372 45.7318 10.9277 45.4952 11.1243C45.4575 11.0449 45.4086 10.9724 45.3442 10.914C45.2073 10.7901 45.0098 10.6866 44.8206 10.7655C43.4108 11.3533 42.1098 12.192 41.0069 13.2495C40.422 13.8103 39.8789 14.4059 39.4027 15.0626C38.8732 15.7927 38.3826 16.5696 38.0898 17.427C37.9689 17.7809 37.8977 18.1672 37.8872 18.5493C37.3229 19.0506 36.7559 19.5489 36.1869 20.045C36.9287 18.7058 37.6573 17.3591 38.3598 15.9989C38.572 15.5881 38.7852 15.1768 38.9772 14.7559C39.0793 14.532 39.185 14.302 39.2486 14.0642C39.3559 13.663 39.3441 13.1289 39.0273 12.8146C38.8706 12.6593 38.6892 12.6137 38.4825 12.6586C38.3205 12.6938 38.2024 12.8219 38.0915 12.9318C37.9077 13.1137 37.76 13.337 37.6104 13.5469C37.4973 13.7058 37.3865 13.8664 37.2762 14.0274C37.1786 13.8132 37.0569 13.6153 36.9037 13.4272C36.745 13.2324 36.5251 13.0552 36.2902 12.9634C35.4094 12.6192 34.5261 13.1451 33.8635 13.7017C33.224 14.2388 32.6601 14.8596 32.1209 15.4973C32.0943 15.5207 32.0682 15.5455 32.0438 15.5727C31.9428 15.6858 31.8367 15.7935 31.7266 15.8973C31.5614 16.0347 31.3853 16.1564 31.195 16.2563C31.0391 16.3192 30.8779 16.3643 30.7117 16.3903C30.6183 16.3945 30.525 16.3946 30.4323 16.387C30.4294 16.3156 30.4255 16.2441 30.4196 16.1726C30.3623 15.4684 30.1257 14.6967 29.6294 14.1752C29.3352 13.8662 28.9275 13.7302 28.5095 13.7995C28.2868 13.8363 28.0953 13.9558 27.9398 14.1163C27.8526 14.1282 27.7683 14.1588 27.695 14.216C26.5079 15.1429 25.4411 16.1994 24.4995 17.3625C24.4776 17.3838 24.4568 17.4064 24.4384 17.4313C24.4177 17.4593 24.3969 17.4871 24.3761 17.515C24.1392 17.8136 23.9111 18.1196 23.6907 18.4316C22.6592 19.7992 21.5934 21.142 20.4148 22.3868C19.994 22.8312 19.5584 23.2616 19.1052 23.6732C18.571 24.146 18.0117 24.5907 17.4161 24.9841C17.2221 25.1122 17.0857 25.3506 17.022 25.5678C16.9522 25.8059 16.9415 26.1279 17.0301 26.3641C17.1046 26.5629 17.2254 26.7893 17.4349 26.873C17.6333 26.9522 17.8349 26.9388 18.0172 26.8184C19.2494 26.0045 20.3459 24.982 21.3581 23.9116C21.6394 23.6142 21.9139 23.3104 22.1837 23.0027C22.2008 23.0563 22.2191 23.1095 22.24 23.1617C22.4836 23.7704 22.9474 24.2951 23.5762 24.5207C24.1993 24.7442 24.8688 24.713 25.4919 24.5006C27.2104 23.9146 28.391 22.4925 29.2022 20.9192C29.129 21.4457 29.1217 21.977 29.2914 22.4939C29.4783 23.0638 29.8779 23.6027 30.5152 23.6732C30.9805 23.7247 31.4213 23.4887 31.8052 23.2567C32.3678 22.9166 32.8657 22.4625 33.3263 21.9869C33.1174 22.3546 32.9074 22.7217 32.6976 23.0889C31.8946 23.7966 31.0964 24.5102 30.3079 25.2343C29.2932 25.5866 28.2822 25.9495 27.2759 26.3255C26.1811 26.7345 25.0916 27.1581 24.0087 27.5977C22.9704 28.0191 21.9381 28.4551 20.9129 28.9075C19.8793 29.3637 18.8533 29.8371 17.8348 30.3261C16.9152 30.7676 16.0028 31.2243 15.0995 31.6982C14.2384 32.1498 13.3857 32.6171 12.543 33.1021C11.7508 33.5582 10.9676 34.03 10.196 34.5202C9.4701 34.9814 8.75443 35.4586 8.05202 35.955C7.71822 36.1908 7.38749 36.4311 7.0602 36.6759C7.06503 36.6682 7.06986 36.6605 7.07469 36.6526C7.96603 35.2142 8.84566 33.7684 9.72262 32.3213C10.3831 31.2312 11.0427 30.1408 11.7043 29.0514C11.7369 29.0244 11.7697 28.9976 11.8022 28.9706C12.7077 28.2183 13.5912 27.4401 14.463 26.6492C15.3835 25.8142 16.2874 24.9608 17.1771 24.093C18.1228 23.1707 19.0527 22.2321 19.9663 21.2779C20.8975 20.3053 21.8122 19.3167 22.7072 18.3107C23.5846 17.3245 24.4435 16.3216 25.2771 15.298C26.0617 14.3346 26.8245 13.3531 27.5529 12.3464C28.2482 11.3853 28.9178 10.4028 29.5322 9.38772C29.7875 8.9657 30.0329 8.5376 30.2635 8.1015C30.5519 7.55595 30.88 6.97472 31.0008 6.36739C31.0951 5.89352 31.1543 5.37131 30.962 4.91114C30.8733 4.69896 30.7691 4.49433 30.5887 4.34298C30.406 4.18981 30.2519 4.12789 30.024 4.07361C29.7569 4.00996 29.455 4.05939 29.1937 4.13073C28.8694 4.21932 28.5571 4.37143 28.2653 4.53577C27.5328 4.94824 26.8858 5.50894 26.2765 6.08268C25.6728 6.65138 25.1043 7.26131 24.5545 7.88199C23.4381 9.14206 22.3616 10.4373 21.3215 11.761C20.2978 13.0639 19.3092 14.3942 18.3501 15.7453C17.3605 17.1392 16.4007 18.5545 15.4627 19.9836C14.5619 21.3562 13.6822 22.7427 12.815 24.1368C12.1189 25.2559 11.4318 26.3804 10.7471 27.5063C10.0311 28.0898 9.30119 28.6577 8.54261 29.1846C8.02612 29.5432 7.49441 29.8911 6.92829 30.1676C6.74394 30.2503 6.55178 30.3242 6.35344 30.3602C6.33557 30.3602 6.31783 30.3593 6.30005 30.358C6.2316 30.3373 6.16165 30.3337 6.09006 30.3493C5.98483 30.3482 5.88886 30.3809 5.80225 30.4475C5.61414 30.5709 5.46237 30.8172 5.40726 31.0311C5.34154 31.2865 5.32095 31.5761 5.41549 31.8274C5.48532 32.0131 5.6131 32.2768 5.82148 32.3364C5.94412 32.3715 6.05855 32.412 6.18542 32.4115C6.3244 32.4112 6.46665 32.3948 6.60317 32.3671C6.80157 32.3269 6.99281 32.2519 7.17708 32.1695C7.55489 32.0006 7.91717 31.8044 8.26965 31.591C8.06102 31.9351 7.85283 32.2793 7.64374 32.623C6.76711 34.0635 5.88464 35.5004 4.98801 36.9286C4.53384 37.6519 4.07601 38.373 3.61361 39.091C3.33401 39.5252 2.97318 39.9698 2.94932 40.5089C2.93456 40.8424 3.00023 41.2157 3.25465 41.4563C3.41993 41.6125 3.65233 41.6733 3.87256 41.6135C4.10671 41.5498 4.29243 41.3661 4.46097 41.2051C4.71035 40.9669 4.96179 40.7311 5.21752 40.4997C5.86997 39.9194 6.54497 39.3647 7.23742 38.8329C8.02231 38.2301 8.82872 37.6555 9.65051 37.1042C10.5337 36.5117 11.4346 35.946 12.3489 35.4028C13.3328 34.8182 14.332 34.2594 15.3427 33.7226C16.4157 33.1527 17.5018 32.6076 18.598 32.0838C18.6982 32.0359 18.7985 31.9885 18.8988 31.941C20.2107 31.3236 21.5361 30.7351 22.8726 30.1727C24.1824 29.6216 25.5031 29.0961 26.8316 28.5914C26.2129 29.2267 25.6073 29.8747 25.0196 30.5388C24.2078 31.4563 23.399 32.3926 22.7343 33.4238C21.9833 34.5889 21.4086 35.8718 21.219 37.2544C21.1249 37.9403 21.1778 38.7112 21.5325 39.3218C21.6982 39.6071 21.9349 39.8823 22.2479 40.0072C22.4768 40.0987 22.7161 40.1504 22.9616 40.1286C23.2223 40.1055 23.4616 40.057 23.6991 39.9453C23.9524 39.8263 24.193 39.6915 24.4169 39.5235C24.8392 39.2068 25.2191 38.8223 25.5602 38.4204C26.3444 37.4962 26.9179 36.4193 27.4978 35.3619C28.7106 33.1503 29.9611 30.9598 31.217 28.7726C31.635 28.0447 32.0535 27.3171 32.4719 26.5894C33.8986 26.1162 35.3319 25.6631 36.7715 25.2309C38.4986 24.7124 40.2342 24.2222 41.9765 23.7579C43.2307 23.4237 44.4886 23.1039 45.7495 22.796C45.5428 23.4978 45.3939 24.221 45.4156 24.9521C45.4213 25.1421 45.4525 25.3357 45.5041 25.5179C45.5839 25.8002 45.8 26.1028 46.126 26.0637C46.4483 26.0251 46.6771 25.6718 46.7418 25.3763C46.9628 24.3675 47.2202 23.3674 47.5058 22.3754C55.8895 20.4112 64.3593 18.4365 72.9159 17.4769C73.4021 17.4223 73.6769 17.0897 73.6342 16.8068C73.572 16.3929 73.3314 16.1335 72.7885 16.1729C64.5616 17.096 56.4213 18.595 48.2787 20.1329C48.37 19.9327 48.4624 19.7329 48.5563 19.534C48.9636 18.6711 49.3964 17.8201 49.85 16.9805C49.9334 17.1895 50.0361 17.3898 50.1665 17.5746C50.3241 17.7979 50.5236 18.0112 50.7875 18.1058C51.0684 18.2063 51.3394 18.2146 51.6276 18.1234C52.2064 17.9404 52.6737 17.4763 53.0792 17.048C53.5374 16.564 53.935 16.023 54.3094 15.4729C54.6945 14.907 55.0583 14.3257 55.4054 13.7346C55.7931 13.1996 56.2116 12.6875 56.6568 12.1944C57.1592 11.638 57.6745 11.094 58.1695 10.5319C58.1701 10.8243 58.1838 11.115 58.2081 11.4019C57.4572 12.0982 56.7271 12.8207 56.0586 13.5957C55.6129 14.1122 55.1607 14.68 54.8946 15.3142C54.7296 15.7076 54.6384 16.112 54.6576 16.5401C54.672 16.8609 54.7728 17.2112 54.9937 17.4537C55.3007 17.7907 55.7435 17.7782 56.1544 17.7056C56.5346 17.6384 56.8998 17.4812 57.2391 17.3011C57.6924 17.0604 58.1261 16.7814 58.5092 16.4384C58.9423 16.0505 59.3098 15.6071 59.5733 15.0873C59.8997 14.442 59.9905 13.6856 59.8301 12.9821C59.7803 12.7637 59.7265 12.5467 59.6762 12.3289C60.1497 11.9124 60.6301 11.504 61.1139 11.1008C61.1026 11.1307 61.0907 11.1604 61.0795 11.1904C60.8704 11.7598 60.6662 12.34 60.5587 12.9387C60.44 13.5998 60.3575 14.3422 60.6731 14.9659C60.7824 15.1823 60.9584 15.3997 61.1908 15.4901C61.4587 15.5942 61.6949 15.5772 61.9725 15.508C62.3902 15.4039 62.778 15.1459 63.0898 14.8548C63.522 14.451 63.8832 13.9781 64.209 13.4862C64.6602 12.8039 65.0616 12.0878 65.456 11.3712C65.5025 11.2864 65.5483 11.2011 65.5942 11.1162C65.494 11.4761 65.3908 11.8353 65.2822 12.1929C65.209 12.4336 65.134 12.6736 65.0566 12.9128C65.0202 13.0239 64.9838 13.1348 64.9462 13.2455C64.927 13.3036 64.9072 13.3616 64.8874 13.4195C64.8604 13.4984 64.7706 13.7525 64.8913 13.4092C64.7997 13.6703 64.7372 13.9127 64.7611 14.1938C64.7785 14.3933 64.8462 14.6815 64.9974 14.8309C65.1216 14.954 65.2911 15.0485 65.4712 14.9753C65.6491 14.9032 65.8004 14.7396 65.8742 14.5629C66.0243 14.3337 66.2023 14.1183 66.3686 13.9035C66.7408 13.4219 67.1204 12.9458 67.5007 12.4704C68.0783 11.748 68.659 11.028 69.2398 10.3085C69.1643 10.4864 69.086 10.6637 69.0045 10.839C68.891 11.0804 68.7558 11.3143 68.6628 11.5643C68.4802 12.0551 68.3935 12.5846 68.5338 13.0994C68.6215 13.4207 68.8183 13.771 69.1357 13.9136C69.4653 14.0618 69.7748 13.981 70.0713 13.8029C70.3168 13.6555 70.5002 13.4254 70.6903 13.2153C71.2236 12.6247 71.7165 11.9997 72.1895 11.3598C72.307 11.705 72.5583 12.017 72.8986 12.1598C73.0549 12.2255 73.2341 12.2838 73.4069 12.2794C73.665 12.2729 73.8425 12.2043 74.0496 12.0517C74.625 11.6288 75.1113 11.0917 75.5504 10.5319C76.0125 9.94237 76.4406 9.32802 76.9492 8.77609C77.1016 8.61078 77.1764 8.27841 77.1944 8.0668C77.2135 7.83855 77.1883 7.53209 77.0722 7.32624ZM17.6422 19.6557C17.723 19.5356 17.8044 19.4159 17.8856 19.2961C18.9931 17.6692 20.1363 16.0661 21.3275 14.4993C22.5509 12.8904 23.8245 11.3194 25.1554 9.79814C25.873 8.97797 26.6093 8.16466 27.4171 7.43136C27.9178 6.99146 28.4583 6.5705 29.0562 6.27274C29.1922 6.21418 29.3322 6.16393 29.4758 6.12883C29.2775 6.57224 29.0437 7.00328 28.8075 7.42598C28.5163 7.94695 28.2067 8.45744 27.8848 8.95993C27.7179 9.22045 27.5471 9.47851 27.374 9.73502C26.6542 10.7884 25.8913 11.8121 25.1018 12.8142C24.2262 13.9255 23.318 15.0112 22.3874 16.0769C21.427 17.1767 20.4424 18.2554 19.4379 19.315C18.4479 20.3593 17.4387 21.3854 16.4106 22.3921C15.9254 22.8672 15.4361 23.3381 14.9421 23.8041C15.8235 22.4093 16.7206 21.0243 17.6422 19.6557ZM39.8621 17.1747C40.3569 16.4062 40.9348 15.6946 41.5846 15.0521C42.3549 14.3206 43.2168 13.6903 44.1508 13.1844C44.1576 13.2272 44.1667 13.2683 44.1782 13.3079C44.091 13.6227 43.9908 13.9339 43.8789 14.2411C43.608 14.9337 43.2758 15.6005 42.8848 16.2332C42.4188 16.9509 41.8782 17.6179 41.2667 18.217C40.9723 18.4967 40.6621 18.7689 40.3093 18.9702C40.1871 19.0253 40.0611 19.0672 39.9292 19.0924C39.8501 19.0938 39.7721 19.0866 39.6941 19.0721C39.6356 19.0485 39.5796 19.0204 39.5258 18.9872C39.4817 18.9474 39.4407 18.9048 39.4019 18.8597C39.3753 18.8169 39.3509 18.7729 39.328 18.7281C39.3126 18.6832 39.2985 18.6379 39.2862 18.5921C39.2837 18.5706 39.2815 18.549 39.2797 18.5274C39.283 18.4738 39.2879 18.4203 39.2946 18.367C39.316 18.2781 39.3413 18.1904 39.3701 18.1037C39.5053 17.7799 39.6777 17.4732 39.8621 17.1747ZM27.5106 20.6239C27.2325 21.0189 26.9191 21.3873 26.5631 21.7144C26.2585 21.9698 25.9278 22.1905 25.5716 22.3677C25.2957 22.4877 25.009 22.5793 24.7113 22.6234C24.528 22.6331 24.3458 22.6218 24.1663 22.5841C24.0461 22.5424 23.9315 22.4884 23.8225 22.4224C23.7688 22.3787 23.7182 22.3318 23.6704 22.2818C23.6465 22.2468 23.6235 22.211 23.6026 22.1743C23.5954 22.1543 23.5878 22.1342 23.5814 22.1139C23.5783 22.0905 23.5758 22.0668 23.5735 22.0433C23.5763 21.9988 23.5802 21.9544 23.5856 21.9102C23.6134 21.7963 23.6476 21.6844 23.6873 21.574C23.9204 21.0405 24.2407 20.5418 24.5674 20.0594C24.6315 19.9663 24.6975 19.8747 24.7632 19.7828C24.9258 19.5658 25.0875 19.348 25.2491 19.1303C25.9179 18.2736 26.6596 17.4754 27.4665 16.746C27.5484 16.674 27.6311 16.6032 27.7142 16.5328C27.7802 16.6811 27.8565 16.8242 27.942 16.9593C28.1578 17.2998 28.4329 17.5992 28.7522 17.8425C28.6464 18.2311 28.5143 18.6131 28.3676 18.9874C28.1301 19.5569 27.8489 20.1076 27.5106 20.6239ZM32.2656 20.6331C31.9002 20.9722 31.5073 21.2906 31.0668 21.5257C30.9723 21.5688 30.8757 21.6042 30.7741 21.6263C30.739 21.6261 30.7041 21.6238 30.6692 21.6191C30.6529 21.6117 30.6365 21.6043 30.6208 21.5958C30.617 21.592 30.6134 21.5879 30.6096 21.5842C30.6056 21.5774 30.6012 21.5708 30.5974 21.564C30.5912 21.5452 30.5846 21.5265 30.5791 21.5074C30.5734 21.4639 30.569 21.4203 30.5659 21.3766C30.5715 21.2884 30.582 21.2007 30.5948 21.1132C30.6549 20.8153 30.7376 20.5235 30.8408 20.2378C31.0179 19.8089 31.2378 19.4004 31.4829 19.0067C31.8298 18.4771 32.2131 17.9781 32.6137 17.4893C32.7419 17.3694 32.8653 17.2443 32.9822 17.1135C33.0495 17.0383 33.1043 16.9477 33.1481 16.8507C33.4752 16.4701 33.8139 16.0993 34.1756 15.7514C34.4701 15.4809 34.7845 15.2259 35.1353 15.033C35.2704 14.972 35.4106 14.9242 35.5565 14.8977C35.6222 14.8968 35.6876 14.9014 35.7523 14.9125C35.8009 14.9321 35.8477 14.9553 35.8928 14.982C35.9305 15.0156 35.966 15.0513 35.9994 15.0891C36.025 15.1297 36.0484 15.1714 36.0705 15.2139C36.0947 15.2814 36.1156 15.3498 36.1333 15.4193C36.1412 15.4767 36.147 15.5343 36.151 15.5921C36.1501 15.6161 36.1498 15.6401 36.1482 15.664C35.19 17.0622 34.2265 18.464 33.1095 19.7409C32.8399 20.0491 32.5601 20.3484 32.2656 20.6331ZM26.9558 33.1615C26.538 33.9141 26.1424 34.6817 25.7058 35.4235C25.608 35.5895 25.5072 35.7535 25.4041 35.9162C25.0524 36.4494 24.6623 36.9561 24.2049 37.4032C23.9787 37.6082 23.7363 37.7966 23.4696 37.9455C23.3305 38.0086 23.1861 38.0571 23.0359 38.084C22.9607 38.0854 22.8861 38.0804 22.8121 38.0677C22.7749 38.0535 22.7383 38.0376 22.7028 38.0197C22.6924 38.009 22.6824 37.9979 22.6723 37.9869C22.6578 37.9634 22.6441 37.9393 22.6311 37.915C22.6236 37.8922 22.617 37.8692 22.6106 37.8462C22.605 37.8007 22.6007 37.7549 22.5978 37.7092C22.6031 37.5902 22.6142 37.4717 22.6308 37.3537C22.7002 37.0084 22.7974 36.667 22.918 36.336C23.1389 35.7935 23.4146 35.2756 23.725 34.779C24.358 33.8152 25.1299 32.9355 25.8924 32.0735C26.6851 31.1775 27.5104 30.3106 28.3567 29.465C28.8137 29.0084 29.2776 28.5584 29.7456 28.1129C29.7951 28.066 29.8452 28.0199 29.8948 27.9731C29.343 28.9347 28.7924 29.897 28.2461 30.8619C27.813 31.6268 27.3825 32.393 26.9558 33.1615ZM38.0617 22.7722C36.8616 23.1202 35.6653 23.4817 34.4734 23.8571C35.2941 23.1415 36.1162 22.4277 36.9366 21.7117C37.4348 21.277 37.9309 20.84 38.4254 20.4011C38.7058 20.7685 39.0495 21.0323 39.5195 21.1245C40.0044 21.2197 40.4932 21.0177 40.9013 20.7761C41.2308 20.5809 41.5198 20.3213 41.7985 20.0606C42.1044 19.7744 42.4009 19.4783 42.6788 19.1648C43.2085 18.567 43.6662 17.913 44.0773 17.2288C44.8053 16.0172 45.338 14.6642 45.6339 13.2786C45.8621 13.08 46.0937 12.8853 46.3317 12.6987C46.4795 12.5827 46.6302 12.4688 46.7853 12.3616C46.5241 13.0549 46.225 13.734 45.9241 14.4107C45.5644 15.2199 45.1968 16.0256 44.8479 16.8394C44.6655 17.2651 44.488 17.6931 44.3233 18.126C44.242 18.3397 44.1882 18.5412 44.1888 18.773C44.1893 18.973 44.2164 19.2019 44.322 19.3772C44.391 19.4919 44.4768 19.5969 44.5934 19.6658C44.758 19.763 44.9712 19.7097 45.1153 19.606C45.3514 19.4359 45.5573 19.2206 45.756 19.01C45.9628 18.791 46.1553 18.5584 46.3417 18.322C46.8088 17.7296 47.2401 17.1093 47.6644 16.486C47.9585 16.0541 48.2474 15.6187 48.5355 15.1827C47.9302 16.7188 47.3572 18.2693 46.8459 19.8395C46.7468 20.0706 46.6501 20.3028 46.5559 20.5359C46.3652 20.5814 46.1744 20.6264 45.9837 20.6724C44.6364 20.9978 43.2925 21.3378 41.9528 21.6931C40.6517 22.0382 39.3545 22.3974 38.0617 22.7722ZM52.5927 15.1449C52.4639 15.2983 52.3294 15.4469 52.1896 15.5903C52.0103 15.762 51.8184 15.9233 51.6056 16.0508C51.5241 16.0889 51.4397 16.1195 51.352 16.1393C51.3156 16.1394 51.2793 16.137 51.2433 16.1317C51.2231 16.1225 51.2034 16.1124 51.1843 16.1013C51.1567 16.0746 51.1304 16.0467 51.1058 16.017C51.0747 15.9642 51.0467 15.9095 51.0209 15.8537C50.9563 15.6717 50.9075 15.4844 50.8685 15.2952C50.8636 15.2653 50.8586 15.2356 50.8541 15.2057C50.9618 15.0236 51.0695 14.8415 51.1797 14.661C51.5432 14.0721 51.9195 13.4911 52.3159 12.9239C52.6874 12.3925 53.0756 11.8715 53.4945 11.3762C53.6832 11.153 53.8793 10.936 54.0843 10.7276C54.3379 10.4812 54.6107 10.2471 54.9161 10.069C55.0168 10.0209 55.1218 9.98236 55.2308 9.95924C55.2672 9.95894 55.3034 9.96135 55.3393 9.96629C55.3582 9.97486 55.3769 9.9838 55.3949 9.99413C55.4082 10.0075 55.4213 10.0209 55.4337 10.0352C55.4487 10.0617 55.4629 10.0886 55.4762 10.116C55.4907 10.1596 55.5037 10.2037 55.5152 10.2482C55.5183 10.2759 55.5209 10.3038 55.5229 10.3315C55.5212 10.3556 55.5189 10.3798 55.5165 10.4039C55.5068 10.4431 55.4956 10.482 55.4839 10.5206C55.3574 10.8131 55.1872 11.0939 55.0362 11.3714C54.8438 11.7252 54.6465 12.0765 54.4438 12.4245C54.3261 12.6266 54.206 12.8273 54.0842 13.027C53.6301 13.7611 53.1483 14.4837 52.5927 15.1449ZM58.674 13.7448C58.6705 13.754 58.6669 13.7631 58.6634 13.7721C58.6643 13.7668 58.6652 13.7615 58.666 13.7564C58.7222 13.5899 58.6996 13.6788 58.674 13.7448ZM58.6383 13.8301C58.6165 13.8812 58.5928 13.9313 58.5672 13.9805C58.4733 14.1277 58.3668 14.2663 58.2511 14.397C57.9845 14.6699 57.6852 14.9107 57.3663 15.1195C57.284 15.1734 57.1996 15.224 57.1147 15.2737C56.8994 15.3908 56.6756 15.4957 56.4442 15.577C56.5931 15.3869 56.7494 15.2025 56.9077 15.0221C57.0252 14.8882 57.1459 14.7572 57.2672 14.6269C57.6752 14.1966 58.0974 13.7796 58.5292 13.3722C58.5659 13.5247 58.6033 13.6771 58.6383 13.8301ZM73.3049 11.0188C73.2988 11.0399 73.2933 11.0611 73.2861 11.0821C73.2243 11.2549 73.259 11.152 73.3049 11.0188Z" fill="#A7A7A7"/>
<path d="M78.7621 4.46291C78.8128 4.40347 78.8688 4.32816 78.9378 4.23952C79.0074 4.15082 79.0762 4.05909 79.1516 3.96069C79.2234 3.86255 79.292 3.76774 79.3546 3.67956C79.4167 3.59141 79.4695 3.51323 79.5127 3.44814C79.5562 3.38612 79.5772 3.34433 79.5826 3.32226C79.588 3.30018 79.5901 3.28144 79.589 3.26603C79.5848 3.20748 79.5377 3.17992 79.4493 3.18634C79.3259 3.19529 79.1712 3.24058 78.9882 3.32202L78.9937 3.3495C78.9948 3.36491 78.987 3.40264 78.9677 3.466C78.952 3.53219 78.9304 3.6143 78.903 3.71232C78.8366 3.97425 78.7893 4.2255 78.7621 4.46291ZM78.5602 5.46884C78.7173 5.45744 78.8706 5.39366 79.0201 5.27748C79.1696 5.16131 79.3098 5.00554 79.4396 4.81027C79.1407 4.93972 78.9368 5.20105 78.7538 5.2999L78.7066 5.30953C78.5803 5.31869 78.4857 5.24811 78.427 5.10058C78.3813 4.99547 78.3513 4.86444 78.3399 4.70728C78.3189 4.41762 78.3357 4.12521 78.3935 3.83293C78.4215 3.65433 78.4585 3.50295 78.5077 3.37546C78.5572 3.25106 78.6033 3.17647 78.6529 3.15119L78.6476 3.12679C78.6463 3.1083 78.6556 3.09213 78.6784 3.07499C78.7077 3.05119 78.7844 3.02083 78.9017 2.98444C79.0135 2.96084 79.1125 2.94746 79.1975 2.9413C79.3308 2.93163 79.4553 2.93808 79.5667 2.95788C79.6921 2.98595 79.7856 3.04112 79.853 3.12297C79.8914 3.17595 79.9131 3.23323 79.9171 3.28869C79.9303 3.4705 79.8086 3.73645 79.5518 4.08344C79.4481 4.21797 79.3286 4.36914 79.1899 4.53719L79.4208 4.45538C79.5048 4.4276 79.5897 4.41215 79.6718 4.4062C79.7437 4.26158 79.805 4.11463 79.8628 3.96794C79.9696 3.6814 80.0434 3.42513 80.0787 3.20262C80.0897 3.11199 80.0938 3.03115 80.0891 2.96644C80.0639 2.80409 79.9976 2.69738 79.8905 2.64009C79.8226 2.60785 79.7393 2.59531 79.6403 2.60249C79.5274 2.61068 79.4064 2.64424 79.2698 2.70372C79.1064 2.77443 78.9452 2.86667 78.782 2.98693C78.6187 3.1072 78.4803 3.23186 78.3694 3.36382C78.2425 3.50933 78.156 3.63951 78.1163 3.75391C78.0058 4.17393 77.9528 4.53092 77.9631 4.81827C77.9711 4.92921 77.9848 5.02114 78.0073 5.09696C78.0537 5.26087 78.1442 5.37202 78.2859 5.42989C78.3639 5.4645 78.4543 5.47653 78.5602 5.46884ZM78.7905 5.80527C78.6572 5.81494 78.5296 5.80562 78.4038 5.78067C78.2056 5.74239 78.0313 5.6621 77.8745 5.54028C77.7108 5.41276 77.5884 5.24197 77.508 5.02786C77.4494 4.88962 77.4178 4.73702 77.406 4.5737C77.3984 4.46892 77.3971 4.3544 77.409 4.23583C77.3881 4.23114 77.3673 4.22645 77.3492 4.21848C77.296 4.19446 77.2648 4.14405 77.2597 4.07318C77.2512 3.95608 77.3052 3.79728 77.4209 3.59373C77.5091 3.43864 77.6252 3.28151 77.7713 3.11912C77.914 2.95698 78.079 2.81181 78.2646 2.67752C78.575 2.45674 78.8926 2.33458 79.2173 2.31101C79.3575 2.30084 79.488 2.30067 79.616 2.31616C79.9835 2.35765 80.2485 2.46233 80.4089 2.63346C80.483 2.71172 80.5247 2.81092 80.5335 2.9311L80.5377 2.98965C80.5244 3.46766 80.4407 3.92602 80.2908 4.36748C80.2032 4.62785 80.089 4.85918 79.9496 5.06754C79.6431 5.52657 79.2554 5.77154 78.7905 5.80527Z" fill="#A7A7A7"/>
<path d="M76.371 15.7544C75.8773 15.7472 75.3754 15.7873 74.8959 15.8863C74.7115 15.9243 74.5589 16.0307 74.4612 16.152C74.3518 16.2889 74.2872 16.4869 74.3109 16.6444C74.3326 16.7898 74.3878 16.9543 74.539 17.0543C74.6705 17.1416 74.8395 17.1971 75.0222 17.1594C75.2879 17.1046 75.5585 17.0688 75.8315 17.0502C75.9371 17.0464 76.0423 17.0446 76.1477 17.0461C76.3386 17.0489 76.4987 16.9987 76.6344 16.8937C76.7773 16.7826 76.8819 16.6036 76.9007 16.4522C76.9209 16.2941 76.908 16.1164 76.7916 15.9803C76.7002 15.8726 76.5578 15.7571 76.371 15.7544Z" fill="#A7A7A7"/>
</g>
<defs>
<clipPath id="clip0_1_231">
<rect width="81.0997" height="36.174" fill="white" transform="translate(0 5.86901) rotate(-4.15)"/>
</clipPath>
</defs>
</svg>
