<svg width="110" height="35" viewBox="0 0 110 35" fill="none" xmlns="http://www.w3.org/2000/svg">
<g clip-path="url(#clip0_1_207)">
<path d="M94.628 15.5209L94.6337 15.3739L94.6484 15.3744C95.0013 15.3882 95.29 15.2914 95.5139 15.0841C95.7379 14.8769 95.8569 14.5967 95.8707 14.2438L96.0585 9.42033C96.073 9.04778 96.0058 8.75552 95.857 8.54353C95.718 8.33192 95.4034 8.21658 94.9132 8.19749L94.9189 8.05043L96.3748 8.10712C96.7768 8.12278 97.0864 8.11521 97.3035 8.08438C97.5306 8.05396 97.699 8.01141 97.8092 7.95679C97.9198 7.89238 98.0008 7.82678 98.0525 7.76007L98.1996 7.7658L98.1398 9.67811C98.4147 9.17825 98.8178 8.78157 99.3497 8.48807C99.8816 8.19461 100.437 8.0591 101.015 8.08163C101.574 8.10339 102.033 8.2784 102.394 8.60661C102.754 8.93485 102.978 9.36575 103.065 9.89936C103.36 9.38064 103.769 8.97436 104.291 8.68048C104.823 8.38702 105.387 8.25189 105.986 8.27518C106.642 8.30076 107.158 8.53685 107.534 8.98351C107.919 9.43054 108.098 10.007 108.07 10.7128L107.915 14.7128C107.901 15.0657 107.998 15.3543 108.205 15.5783C108.412 15.8024 108.692 15.9213 109.045 15.9351L109.06 15.9356L109.054 16.0827L104.569 15.908L104.575 15.761L104.589 15.7616C104.942 15.7753 105.231 15.6785 105.455 15.4712C105.679 15.264 105.798 14.9838 105.812 14.6309L105.973 10.4839C105.992 9.99373 105.91 9.59775 105.725 9.29599C105.54 8.99424 105.291 8.83726 104.977 8.82504C104.674 8.81321 104.349 8.93806 104.006 9.19958C103.662 9.4513 103.359 9.78809 103.097 10.2099C103.106 10.2299 103.11 10.2546 103.109 10.284C103.108 10.3134 103.107 10.3379 103.106 10.3575L102.944 14.5192C102.93 14.8722 103.027 15.1607 103.234 15.3848C103.442 15.6089 103.722 15.7278 104.075 15.7415L104.089 15.7421L104.084 15.8891L99.5985 15.7145L99.6042 15.5674L99.6189 15.568C99.9719 15.5817 100.26 15.485 100.484 15.2777C100.708 15.0704 100.827 14.7903 100.841 14.4374L101.003 10.2903C101.022 9.80017 100.939 9.40419 100.754 9.10244C100.58 8.80107 100.335 8.64428 100.022 8.63206C99.7178 8.62023 99.3938 8.74017 99.0502 8.99189C98.7168 9.2342 98.4188 9.57115 98.1567 10.0028L97.9883 14.3263C97.9746 14.6792 98.0714 14.9677 98.2786 15.1918C98.4858 15.4159 98.766 15.5348 99.119 15.5485L99.1337 15.5491L99.1279 15.6962L94.628 15.5209Z" fill="#A7A7A7"/>
<path d="M91.5193 15.8123L91.5784 13.9147C91.304 14.4047 90.9008 14.7965 90.3692 15.09C89.8373 15.3835 89.282 15.519 88.7038 15.4965C88.0468 15.4709 87.5258 15.2346 87.1408 14.7876C86.7652 14.3409 86.5915 13.7647 86.619 13.0588L86.7747 9.05884C86.7892 8.68629 86.727 8.39422 86.5879 8.18262C86.4489 7.97101 86.1294 7.85547 85.6294 7.836L85.6351 7.68894L87.1204 7.74678C87.6204 7.76625 88.0048 7.72723 88.2737 7.62968C88.5229 7.53137 88.6996 7.4057 88.8039 7.25267L88.951 7.2584L88.7162 13.2877C88.6971 13.7779 88.7798 14.1739 88.9645 14.4757C89.1489 14.7774 89.3982 14.9344 89.712 14.9466C90.0158 14.9584 90.3346 14.8432 90.668 14.6009C91.0019 14.3488 91.2997 14.0069 91.5622 13.5753L91.7306 9.25182C91.7443 8.89889 91.6671 8.61116 91.4991 8.38859C91.331 8.16604 91.0311 8.04635 90.5999 8.02956L90.6056 7.8825L92.0909 7.94034C92.5909 7.95981 92.9754 7.92078 93.2443 7.82324C93.5032 7.72531 93.6848 7.59983 93.7891 7.4468L93.9362 7.45253L93.6604 14.1578C93.6466 14.5107 93.743 14.8041 93.9501 15.038C94.1573 15.2621 94.4375 15.381 94.7904 15.3947L94.7853 15.5271L93.3294 15.4704C93.0744 15.4605 92.8487 15.4566 92.6524 15.4588C92.4554 15.4707 92.2929 15.4841 92.1648 15.4987C91.8978 15.5472 91.707 15.6527 91.5928 15.8152L91.5193 15.8123Z" fill="#A7A7A7"/>
<path d="M82.4095 15.2514C82.1545 15.2414 81.9637 15.2242 81.8371 15.1996C81.7105 15.1751 81.5889 15.1458 81.4724 15.1118C81.3656 15.0782 81.2195 15.0479 81.0341 15.0211C80.8486 14.9942 80.5646 14.9733 80.1823 14.9584L79.937 12.18L80.1282 12.1875C80.249 13.1151 80.5161 13.8226 80.9292 14.31C81.3427 14.7876 81.8043 15.0363 82.314 15.0562C82.814 15.0756 83.1954 14.9874 83.4584 14.7914C83.7311 14.5959 83.8743 14.3216 83.8881 13.9687C83.8969 13.7432 83.8457 13.5448 83.7345 13.3736C83.6335 13.1929 83.4492 13.009 83.1816 12.8218C82.9144 12.6249 82.5504 12.3898 82.0897 12.1166L81.6724 11.8647C81.1452 11.5398 80.7569 11.1712 80.5078 10.7589C80.2689 10.3372 80.1587 9.89108 80.177 9.4205C80.203 8.75386 80.4637 8.23869 80.9589 7.87505C81.464 7.51179 82.1232 7.346 82.937 7.37769C83.1429 7.3857 83.3093 7.40199 83.4359 7.42657C83.5625 7.45114 83.6842 7.48042 83.8007 7.51441C83.9172 7.54841 84.0633 7.57863 84.239 7.60512C84.4147 7.63161 84.6496 7.65057 84.9437 7.66202L85.0574 10.0377L84.8809 10.0308C84.84 9.56773 84.7235 9.1557 84.5314 8.79475C84.3494 8.42438 84.1249 8.13581 83.8582 7.92904C83.5918 7.71247 83.3164 7.59865 83.032 7.58757C82.6593 7.57306 82.3567 7.65946 82.1235 7.84676C81.9002 8.03445 81.7816 8.30474 81.7679 8.65768C81.7576 8.92238 81.8313 9.17071 81.9892 9.4027C82.1573 9.62527 82.4814 9.87351 82.9617 10.1475L83.3943 10.3853C84.0668 10.7649 84.5524 11.152 84.8514 11.5466C85.1503 11.9412 85.288 12.4375 85.2647 13.0355C85.2051 14.5649 84.2535 15.3035 82.4095 15.2514Z" fill="#A7A7A7"/>
<path d="M70.2438 17.6644L70.2496 17.5173L70.2643 17.5179C70.6172 17.5316 70.9058 17.4349 71.1298 17.2276C71.3541 17.0203 71.4728 16.7402 71.4865 16.3873L71.7946 8.47559C71.8017 8.04386 71.7203 7.7363 71.5507 7.55296C71.3811 7.36962 71.0807 7.26955 70.6493 7.25275L70.655 7.10569L72.1109 7.16238C72.6894 7.18491 73.0885 7.14646 73.3083 7.04701C73.5284 6.94756 73.6903 6.82131 73.7944 6.66828L73.9414 6.674L73.8828 8.55691C74.1256 8.12452 74.4831 7.77024 74.9552 7.49406C75.4275 7.2179 75.9185 7.08974 76.4282 7.10958C76.9773 7.13097 77.4561 7.31654 77.8646 7.66627C78.2734 8.01601 78.5839 8.48467 78.7967 9.07227C79.0198 9.65043 79.1166 10.3121 79.0876 11.0571C79.0555 11.8807 78.8806 12.5906 78.5628 13.187C78.245 13.7834 77.8102 14.2378 77.2578 14.5501C76.7154 14.8628 76.0766 15.0048 75.3413 14.9762C74.9395 14.9606 74.6135 14.884 74.3635 14.7467C74.1133 14.6191 73.8906 14.4091 73.6958 14.1168L73.6042 16.4697C73.5904 16.8227 73.6873 17.1112 73.8945 17.3352C74.1019 17.5594 74.3819 17.6782 74.7348 17.692L74.7495 17.6926L74.7438 17.8396L70.2438 17.6644ZM75.0422 14.7142C75.5716 14.7348 75.9865 14.422 76.2865 13.7759C76.5771 13.1195 76.7467 12.1688 76.7952 10.9237C76.8784 8.78649 76.4888 7.70106 75.6259 7.66746C75.2927 7.65449 74.959 7.77404 74.6252 8.02615C74.2914 8.27825 74.0484 8.59281 73.8962 8.96981L73.7628 12.3962C73.7353 13.1021 73.8364 13.6608 74.0657 14.0723C74.2953 14.4838 74.6208 14.6978 75.0422 14.7142Z" fill="#A7A7A7"/>
<path d="M66.3513 14.4199L66.357 14.2728L66.3717 14.2734C66.7246 14.2871 67.0132 14.1904 67.2372 13.9831C67.4615 13.7758 67.5802 13.4957 67.594 13.1427L67.7818 8.31927C67.7963 7.94671 67.7293 7.65446 67.5803 7.44247C67.4412 7.23086 67.1267 7.11552 66.6364 7.09643L66.6422 6.94937L68.1421 7.00778C68.6421 7.02725 69.0266 6.98822 69.2955 6.89068C69.545 6.79238 69.7216 6.66671 69.8256 6.51367L69.9727 6.5194L69.7116 13.2252C69.6978 13.5781 69.7947 13.8667 70.0019 14.0907C70.2094 14.3148 70.4893 14.4337 70.8422 14.4475L70.8569 14.448L70.8512 14.5951L66.3513 14.4199ZM68.9353 5.55113C68.5823 5.53739 68.2926 5.4132 68.0661 5.17855C67.8499 4.93448 67.7485 4.63597 67.7622 4.28304C67.776 3.9301 67.9001 3.64528 68.1342 3.42857C68.3787 3.20244 68.6774 3.09625 69.0303 3.10999C69.3735 3.12336 69.6534 3.25208 69.8695 3.49614C70.0956 3.74059 70.202 4.03439 70.1887 4.37752C70.1753 4.72065 70.0464 5.00529 69.8019 5.23142C69.5675 5.45793 69.2785 5.5645 68.9353 5.55113Z" fill="#A7A7A7"/>
<path d="M62.1241 14.4614C61.3202 14.4301 60.6207 14.2409 60.0253 13.8937C59.44 13.5469 58.9921 13.0729 58.6815 12.4717C58.3712 11.8705 58.2316 11.1679 58.2629 10.364C58.2942 9.56008 58.488 8.87049 58.8442 8.29524C59.2006 7.72 59.6839 7.28225 60.2945 6.98201C60.915 6.68216 61.6272 6.54788 62.431 6.57918C63.2351 6.6105 63.9297 6.79955 64.515 7.14636C65.1006 7.49318 65.5485 7.96719 65.8588 8.56839C66.1694 9.16961 66.3088 9.87217 66.2775 10.6761C66.2462 11.48 66.0526 12.1696 65.6962 12.7448C65.34 13.3201 64.8567 13.7578 64.2459 14.058C63.6353 14.3583 62.9281 14.4928 62.1241 14.4614ZM62.1168 14.2697C62.46 14.2831 62.7608 14.123 63.0192 13.7894C63.2778 13.4558 63.4867 13.0074 63.646 12.4441C63.8058 11.871 63.8988 11.2462 63.9251 10.5697C63.9538 9.83446 63.9054 9.18454 63.7801 8.62C63.6652 8.04605 63.4862 7.59724 63.2434 7.27358C63.011 6.94052 62.7379 6.76787 62.4241 6.75565C62.0909 6.74268 61.7901 6.90278 61.5217 7.23599C61.2634 7.5696 61.0544 8.01803 60.895 8.58129C60.7357 9.14459 60.6427 9.76444 60.6164 10.4409C60.5873 11.186 60.6353 11.8457 60.7602 12.4201C60.8851 12.9944 61.0641 13.4432 61.2969 13.7665C61.5397 14.0901 61.813 14.2579 62.1168 14.2697Z" fill="#A7A7A7"/>
<path d="M54.0446 17.2397C53.0055 17.1993 52.1678 17.0243 51.5318 16.7148C50.9052 16.4154 50.6008 16.0403 50.6183 15.5893C50.6317 15.2462 50.8055 14.9437 51.1397 14.6818C51.4832 14.43 51.9424 14.2417 52.5167 14.1168C51.6043 13.8456 51.1597 13.411 51.183 12.813C51.1956 12.4895 51.3346 12.1954 51.6003 11.9308C51.8663 11.6565 52.2328 11.4449 52.7001 11.2962C52.2183 11.0614 51.8481 10.7328 51.5897 10.3103C51.3411 9.88826 51.2276 9.39782 51.2494 8.83901C51.2811 8.02528 51.5859 7.38423 52.1638 6.91579C52.7514 6.44775 53.5209 6.23223 54.4718 6.26926C54.9227 6.28682 55.3612 6.37262 55.7873 6.52668L58.4931 6.63205L58.3358 6.89102L56.3358 6.81314C56.7191 7.05391 57.0063 7.36946 57.1973 7.75983C57.3984 8.14078 57.4894 8.58124 57.4699 9.08124C57.4382 9.89496 57.1332 10.5409 56.5549 11.0192C55.9867 11.488 55.2225 11.7037 54.2616 11.6663C53.7322 11.6456 53.2697 11.5491 52.8737 11.3766C52.5534 11.531 52.389 11.721 52.3802 11.9465C52.3726 12.1426 52.5048 12.2803 52.7765 12.3596C52.9124 12.4041 53.1069 12.4461 53.3608 12.4854C53.6146 12.5247 53.9227 12.5564 54.2849 12.5803L54.7985 12.6298C55.9243 12.7129 56.7835 12.9623 57.3762 13.3782C57.9786 13.7944 58.2666 14.3407 58.2402 15.0172C58.2108 15.7721 57.8255 16.3413 57.0839 16.7248C56.3419 17.1181 55.329 17.2897 54.0446 17.2397ZM54.2538 11.4892C54.5576 11.501 54.8166 11.2804 55.0307 10.8273C55.2251 10.3734 55.3372 9.76404 55.367 8.99935C55.3971 8.22485 55.3328 7.60866 55.1739 7.15083C55.0048 6.7024 54.7682 6.47227 54.4643 6.46044C54.1505 6.44822 53.8969 6.65926 53.7033 7.09356C53.5092 7.53766 53.3972 8.14697 53.367 8.92147C53.3368 9.69596 53.401 10.317 53.5595 10.7847C53.7185 11.2426 53.95 11.4774 54.2538 11.4892ZM54.2138 17.0548C54.6647 17.0724 55.0841 17.02 55.4718 16.8976C55.8591 16.7851 56.17 16.6155 56.4047 16.389C56.6492 16.1629 56.7773 15.8979 56.7892 15.594C56.8021 15.2606 56.641 14.9893 56.3054 14.7798C55.95 14.5794 55.3997 14.4598 54.6551 14.421L54.1415 14.3715C53.8575 14.3507 53.5936 14.3207 53.3497 14.2818C53.1152 14.253 52.9055 14.2154 52.7208 14.1689C52.5123 14.2296 52.3549 14.3609 52.2489 14.5629C52.1429 14.765 52.0843 15.0082 52.0732 15.2925C52.0534 15.8023 52.2287 16.2166 52.5992 16.5354C52.9697 16.8542 53.5079 17.0274 54.2138 17.0548Z" fill="#A7A7A7"/>
<path d="M46.1977 13.8413C45.3939 13.81 44.6943 13.6208 44.099 13.2736C43.5137 12.9268 43.0655 12.4527 42.7552 11.8515C42.4449 11.2503 42.3052 10.5478 42.3365 9.74386C42.3678 8.93996 42.5617 8.25037 42.9178 7.67512C43.274 7.09987 43.7576 6.66214 44.3681 6.36189C44.9887 6.06204 45.7008 5.92777 46.5047 5.95907C47.3085 5.99037 48.0033 6.17943 48.5887 6.52624C49.174 6.87305 49.6221 7.34707 49.9325 7.94828C50.2428 8.54948 50.3825 9.25205 50.3511 10.056C50.3198 10.8599 50.126 11.5494 49.7698 12.1247C49.4137 12.6999 48.9301 13.1377 48.3195 13.4379C47.709 13.7382 47.0015 13.8726 46.1977 13.8413ZM46.1905 13.6496C46.5337 13.6629 46.8345 13.5028 47.0928 13.1692C47.3512 12.8357 47.5601 12.3872 47.7196 11.8239C47.8795 11.2509 47.9725 10.6261 47.9988 9.94963C48.0274 9.21434 47.9791 8.56443 47.8538 7.99988C47.7386 7.42592 47.5599 6.97712 47.3171 6.65346C47.0847 6.3204 46.8116 6.14776 46.4978 6.13554C46.1645 6.12256 45.8638 6.28266 45.5954 6.61588C45.337 6.94948 45.1281 7.39791 44.9686 7.96117C44.8091 8.52446 44.7164 9.14432 44.69 9.82078C44.661 10.5659 44.709 11.2256 44.8339 11.7999C44.9588 12.3743 45.1378 12.8231 45.3706 13.1464C45.6133 13.47 45.8866 13.6377 46.1905 13.6496Z" fill="#A7A7A7"/>
<path d="M33.3761 13.136L33.3818 12.9889L33.3965 12.9895C33.7494 13.0032 34.0372 12.9211 34.2603 12.7433C34.4832 12.5654 34.6016 12.3 34.6153 11.9471L34.9452 3.47659C34.9589 3.12365 34.8621 2.83514 34.6549 2.61106C34.4474 2.38697 34.1675 2.26807 33.8145 2.25432L33.7998 2.25375L33.8056 2.10669L38.4967 2.28936L38.4909 2.43642L38.4321 2.43413C38.0792 2.42039 37.7906 2.51715 37.5666 2.72444C37.3423 2.93172 37.2236 3.21184 37.2099 3.56478L36.8777 12.0941C36.8655 12.4078 36.9295 12.6558 37.0697 12.838C37.22 13.0107 37.4864 13.1046 37.8688 13.1195L38.1776 13.1315C39.0499 13.1654 39.7957 12.9245 40.4149 12.4086C41.0339 11.8926 41.4408 11.1476 41.636 10.1733L41.7831 10.179L41.2142 13.4412L33.3761 13.136Z" fill="#A7A7A7"/>
<path d="M93.6112 34.2977C93.2092 34.2821 92.8251 34.1885 92.4586 34.0172L93.0991 32.319C93.3403 32.4264 93.6018 32.52 93.8835 32.5999C94.175 32.6799 94.4677 32.7257 94.7619 32.7372C95.1345 32.7517 95.4855 32.6867 95.8151 32.5425C96.1541 32.4085 96.415 32.1388 96.5978 31.7335L96.775 31.3428L94.1261 24.4794C94.0373 24.2402 93.9169 24.049 93.7655 23.9056C93.6045 23.7521 93.3822 23.6649 93.0982 23.644L93.1039 23.497L97.3539 23.6625L97.3482 23.8095C97.0823 23.8286 96.8728 23.9137 96.7196 24.0649C96.5762 24.2164 96.4998 24.4147 96.4903 24.6598C96.4819 24.8755 96.5224 25.098 96.6116 25.3273L97.9611 28.8704L99.5821 25.4429C99.6888 25.2213 99.7465 25.0026 99.7549 24.7869C99.7645 24.5418 99.6988 24.338 99.5578 24.1754C99.4266 24.0132 99.2244 23.912 98.9511 23.8719L98.9568 23.7249L100.986 23.8039L100.98 23.951C100.753 23.9912 100.556 24.1308 100.39 24.3698C100.224 24.599 100.044 24.916 99.852 25.3209L96.5806 32.1747C96.2385 32.8878 95.8102 33.426 95.2953 33.7889C94.7804 34.1518 94.2191 34.3214 93.6112 34.2977Z" fill="#A7A7A7"/>
<path d="M90.9156 31.0998C90.4056 31.0799 89.9954 30.902 89.6845 30.5658C89.3736 30.2297 89.2282 29.8017 89.2485 29.2821L89.4689 23.6205L88.219 23.5718L88.2264 23.3806C88.9048 23.3579 89.5161 23.1657 90.0604 22.804C90.6144 22.4426 91.0756 21.9451 91.444 21.3114L91.6793 21.3206L91.5969 23.4382L93.5527 23.5144L93.3954 23.7733L91.5866 23.7029L91.3787 29.0411C91.3481 29.8253 91.5976 30.228 92.127 30.2486C92.3034 30.2554 92.5064 30.2092 92.7362 30.1103C92.9757 30.0115 93.2018 29.8779 93.4146 29.7095L93.4089 29.8565C93.0693 30.2558 92.6742 30.5692 92.2234 30.7973C91.7731 31.0154 91.3371 31.1162 90.9156 31.0998Z" fill="#A7A7A7"/>
<path d="M83.685 30.6121L83.6907 30.4651L83.7054 30.4656C84.0583 30.4794 84.3469 30.3825 84.5709 30.1753C84.7949 29.9679 84.9139 29.6879 84.9277 29.3349L85.1155 24.5114C85.13 24.1389 85.0627 23.8466 84.914 23.6346C84.7749 23.423 84.4604 23.3077 83.9701 23.2886L83.9759 23.1415L85.4759 23.1999C85.9758 23.2194 86.3603 23.1804 86.6292 23.0828C86.8784 22.9845 87.0553 22.8589 87.1594 22.7058L87.3064 22.7115L87.0453 29.4173C87.0315 29.7704 87.1284 30.0587 87.3356 30.283C87.5428 30.507 87.823 30.626 88.1759 30.6397L88.1906 30.6403L88.1849 30.7873L83.685 30.6121ZM86.269 21.7433C85.916 21.7295 85.6263 21.6053 85.3998 21.3707C85.1834 21.1266 85.0822 20.8281 85.0959 20.4752C85.1097 20.1222 85.2336 19.8374 85.468 19.6207C85.7124 19.3946 86.0111 19.2884 86.364 19.3021C86.7073 19.3155 86.9868 19.4442 87.2032 19.6883C87.4294 19.9327 87.5357 20.2265 87.5224 20.5697C87.509 20.9128 87.3801 21.1974 87.1357 21.4236C86.9009 21.6501 86.6122 21.7566 86.269 21.7433Z" fill="#A7A7A7"/>
<path d="M80.6717 30.7009C80.4167 30.691 80.2259 30.6736 80.0993 30.6492C79.9725 30.6245 79.8511 30.5953 79.7346 30.5613C79.6278 30.5277 79.4817 30.4973 79.2962 30.4706C79.1106 30.4437 78.8268 30.4229 78.4445 30.408L78.1992 27.6295L78.3904 27.6369C78.5113 28.5646 78.7783 29.2721 79.1914 29.7596C79.6046 30.237 80.0662 30.4859 80.5762 30.5057C81.0762 30.5252 81.4576 30.437 81.7206 30.241C81.9933 30.0454 82.1365 29.7712 82.1503 29.4181C82.1591 29.1926 82.1079 28.9943 81.9967 28.823C81.8957 28.6424 81.7114 28.4585 81.4438 28.2713C81.1764 28.0743 80.8126 27.8393 80.3519 27.566L79.9346 27.3141C79.4071 26.9892 79.0191 26.6206 78.77 26.2084C78.5311 25.7867 78.4209 25.3405 78.4392 24.87C78.4652 24.2033 78.7256 23.6881 79.221 23.3245C79.726 22.9612 80.3854 22.7955 81.1992 22.8271C81.4051 22.8352 81.5712 22.8514 81.6981 22.876C81.8247 22.9006 81.9464 22.9299 82.0629 22.9639C82.1794 22.9979 82.3255 23.0281 82.5012 23.0546C82.6769 23.0811 82.9118 23.1 83.2059 23.1115L83.3196 25.4871L83.1431 25.4802C83.1022 25.0172 82.9857 24.6052 82.7936 24.2442C82.6116 23.8738 82.3872 23.5853 82.1204 23.3785C81.8537 23.1619 81.5783 23.0481 81.2942 23.037C80.9215 23.0225 80.6186 23.1089 80.3857 23.2962C80.1622 23.4839 80.0438 23.7542 80.0301 24.1071C80.0198 24.3718 80.0935 24.6202 80.2514 24.8522C80.4195 25.0747 80.7436 25.323 81.2239 25.597L81.6565 25.8347C82.3289 26.2144 82.8146 26.6015 83.1135 26.9961C83.4122 27.3906 83.5502 27.887 83.5269 28.485C83.4673 30.0145 82.5154 30.753 80.6717 30.7009Z" fill="#A7A7A7"/>
<path d="M71.1045 30.1222L71.1102 29.9751L71.125 29.9757C71.4779 29.9895 71.7662 29.8926 71.9905 29.6854C72.2145 29.4779 72.3335 29.198 72.3472 28.845L72.5351 24.0215C72.5496 23.6489 72.4823 23.3567 72.3336 23.1447C72.1945 22.9331 71.8797 22.8177 71.3897 22.7986L71.3954 22.6516L72.8513 22.7083C73.3707 22.7285 73.765 22.6948 74.0335 22.607C74.3024 22.5095 74.4939 22.3795 74.6083 22.217L74.6819 22.2199L74.6026 24.6322C74.7415 24.3431 74.9153 24.0405 75.124 23.7246C75.3425 23.4091 75.6077 23.1494 75.9202 22.9456C76.2425 22.7323 76.6196 22.6341 77.051 22.6509C77.1981 22.6566 77.3543 22.6774 77.5199 22.7133C77.6852 22.7492 77.8596 22.81 78.043 22.8957L77.4025 24.594C77.0572 24.3841 76.7537 24.2349 76.492 24.1461C76.2401 24.0578 76.0161 24.0098 75.8202 24.0021C75.4867 23.9891 75.2326 24.0824 75.0581 24.2817C74.8931 24.4815 74.7465 24.7213 74.6177 25.001L74.4648 28.9274C74.4511 29.2805 74.5477 29.5688 74.7552 29.7931C74.9624 30.017 75.2426 30.1361 75.5955 30.1498L75.6102 30.1504L75.6045 30.2974L71.1045 30.1222Z" fill="#A7A7A7"/>
<path d="M67.4398 30.1561C66.7634 30.1297 66.1669 29.9395 65.6505 29.5856C65.1441 29.2319 64.755 28.7553 64.4838 28.1557C64.2129 27.5462 64.0924 26.8591 64.1222 26.0944C64.1527 25.3101 64.3412 24.6301 64.6877 24.0545C65.0341 23.4789 65.493 23.0402 66.0644 22.7384C66.6462 22.4272 67.2948 22.2856 68.0103 22.3134C68.6086 22.3367 69.1334 22.475 69.5848 22.7282C70.0462 22.9818 70.4059 23.3297 70.6635 23.7717C70.9315 24.2043 71.0742 24.7008 71.0915 25.2612L71.0977 25.4823L66.1565 25.2899L66.1537 25.3635C66.1132 26.4027 66.3113 27.245 66.7475 27.8903C67.1843 28.5259 67.7899 28.8588 68.5643 28.889C69.0349 28.9073 69.4855 28.8119 69.9157 28.6028C70.3563 28.3843 70.7165 28.0842 70.9965 27.7023L71.1271 27.7516C70.9412 28.2451 70.664 28.6762 70.2962 29.0449C69.9283 29.4135 69.5002 29.6961 69.0113 29.8932C68.5226 30.0901 67.9987 30.1778 67.4398 30.1561ZM66.1798 25.0699L69.1651 25.1862C69.1953 24.4117 69.0923 23.7793 68.856 23.2889C68.6297 22.799 68.2911 22.5453 67.84 22.5277C67.4088 22.5109 67.0417 22.7323 66.739 23.1918C66.4365 23.6513 66.2501 24.2773 66.1798 25.0699Z" fill="#A7A7A7"/>
<path d="M60.387 29.9404L57.724 23.0617C57.6348 22.8325 57.5097 22.641 57.3487 22.4875C57.1976 22.3343 56.9801 22.2473 56.6961 22.2264L56.7018 22.0793L60.8194 22.2397L60.8137 22.3867C60.4689 22.4126 60.2377 22.5558 60.1195 22.8163C60.0112 23.0772 60.0324 23.4118 60.1835 23.8203L61.5601 27.4233L63.1947 24.0259C63.3014 23.8042 63.3591 23.5856 63.3675 23.3699C63.3771 23.1248 63.3114 22.921 63.1704 22.7583C63.0295 22.5958 62.8272 22.4946 62.5636 22.4549L62.5694 22.3078L64.8929 22.3983L64.8871 22.5454C64.6299 22.5943 64.3791 22.7318 64.1347 22.9579C63.8902 23.184 63.6668 23.4994 63.4645 23.9039L60.5193 29.9456L60.387 29.9404Z" fill="#A7A7A7"/>
<path d="M52.7657 29.408L52.7714 29.261L52.7861 29.2615C53.139 29.2753 53.4277 29.1784 53.6516 28.9712C53.8756 28.7638 53.9946 28.4838 54.0084 28.1308L54.1962 23.3073C54.2107 22.9348 54.1435 22.6425 53.9947 22.4305C53.8557 22.2189 53.5411 22.1036 53.0509 22.0845L53.0566 21.9374L54.5566 21.9958C55.0566 22.0153 55.441 21.9763 55.7099 21.8787C55.9591 21.7804 56.136 21.6548 56.2401 21.5017L56.3871 21.5074L56.126 28.2132C56.1123 28.5663 56.2091 28.8546 56.4163 29.0789C56.6235 29.3029 56.9037 29.4219 57.2566 29.4356L57.2714 29.4362L57.2656 29.5832L52.7657 29.408ZM55.3497 20.5392C54.9968 20.5254 54.707 20.4012 54.4805 20.1666C54.2641 19.9225 54.1629 19.624 54.1766 19.2711C54.1904 18.9181 54.3143 18.6333 54.5487 18.4166C54.7931 18.1905 55.0918 18.0843 55.4448 18.098C55.788 18.1114 56.0675 18.2401 56.2839 18.4842C56.5101 18.7286 56.6165 19.0224 56.6031 19.3656C56.5897 19.7087 56.4608 19.9933 56.2164 20.2195C55.9816 20.446 55.6929 20.5525 55.3497 20.5392Z" fill="#A7A7A7"/>
<path d="M43.4738 29.0463L43.4795 28.8992L43.4942 28.8998C43.8472 28.9135 44.1355 28.8167 44.3597 28.6095C44.5837 28.402 44.7027 28.1221 44.7165 27.769L44.9043 22.9456C44.9188 22.573 44.8516 22.2807 44.7028 22.0688C44.5638 21.8572 44.249 21.7418 43.759 21.7227L43.7647 21.5757L45.2206 21.6324C45.7206 21.6518 46.105 21.6128 46.3739 21.5153C46.6231 21.4169 46.7997 21.2913 46.9041 21.1382L47.0511 21.144L46.9857 23.2033C47.2602 22.7035 47.6636 22.3068 48.1955 22.0133C48.7272 21.7198 49.2824 21.5843 49.8609 21.6069C50.5176 21.6324 51.0337 21.8685 51.4092 22.3152C51.7942 22.7622 51.9732 23.3387 51.9457 24.0445L51.7899 28.0445C51.7762 28.3975 51.8728 28.6858 52.0802 28.9101C52.2874 29.1341 52.5676 29.2531 52.9206 29.2669L52.9353 29.2674L52.9296 29.4145L48.4443 29.2398L48.45 29.0928L48.4647 29.0933C48.8177 29.1071 49.106 29.0102 49.3303 28.803C49.5543 28.5956 49.6733 28.3156 49.687 27.9626L49.8485 23.8156C49.8676 23.3254 49.7847 22.9294 49.6002 22.6277C49.4252 22.3263 49.1809 22.1695 48.8674 22.1573C48.5633 22.1455 48.2396 22.2654 47.8961 22.5171C47.5626 22.7594 47.2647 23.0964 47.0025 23.528L46.8341 27.8515C46.8204 28.2045 46.917 28.4929 47.1244 28.7171C47.3316 28.9411 47.6118 29.0601 47.9647 29.0739L47.9795 29.0744L47.9737 29.2215L43.4738 29.0463Z" fill="#A7A7A7"/>
<path d="M38.1765 29.046C37.3135 29.0124 36.5701 28.8165 35.946 28.4584C35.3216 28.1001 34.8449 27.6102 34.5157 26.9887C34.1965 26.3577 34.0531 25.6305 34.0851 24.8069L34.3125 18.9688C34.3262 18.6158 34.2294 18.3274 34.0222 18.1033C33.8147 17.8792 33.5348 17.7603 33.1818 17.7465L33.123 17.7442L33.1287 17.5972L37.864 17.7816L37.8582 17.9286L37.8141 17.9269C37.4612 17.9132 37.1726 18.0099 36.9486 18.2172C36.7243 18.4245 36.6056 18.7046 36.5919 19.0575L36.3645 24.8957C36.3241 25.9349 36.5567 26.7688 37.0624 27.3972C37.5783 28.0162 38.2922 28.3436 39.2039 28.3791C40.1254 28.415 40.8628 28.1391 41.4159 27.552C41.9693 26.955 42.2659 26.1467 42.3056 25.1271L42.5244 19.5095C42.5408 19.0879 42.4261 18.7496 42.181 18.4946C41.9355 18.2396 41.6024 18.0941 41.1817 18.058L41.1875 17.911L44.2315 18.0295L44.2258 18.1766C43.8033 18.1798 43.4599 18.2989 43.1957 18.5341C42.9311 18.7693 42.7908 19.0977 42.7744 19.5192L42.5556 25.1368C42.5236 25.9603 42.3239 26.6693 41.9573 27.2638C41.6001 27.8586 41.0963 28.3152 40.4459 28.6337C39.8053 28.9425 39.0488 29.08 38.1765 29.046Z" fill="#A7A7A7"/>
<path fill-rule="evenodd" clip-rule="evenodd" d="M23.5232 2.75819L23.5947 0.919979L27.7964 1.08359L27.1369 18.0214C26.8517 25.3455 20.6831 31.0517 13.359 30.7665C6.34388 30.4933 0.813082 24.8226 0.609568 17.9089L0.578215 17.9077L1.27357 0.0507812L5.47521 0.214395L5.40363 2.05261L12.4939 2.32871L12.5655 0.490493L16.7671 0.654107L16.6955 2.49232L23.5232 2.75819ZM22.9352 17.8578L23.0356 15.2799C22.544 15.7487 22.0194 16.1917 21.4649 16.6066C19.6342 17.9763 17.5058 19.0191 15.2087 19.6923C12.9113 20.3656 10.4764 20.6602 8.03985 20.5653L5.30078 20.4586C6.48392 23.8908 9.67676 26.415 13.5226 26.5648C18.5262 26.7596 22.7403 22.8614 22.9352 17.8578ZM12.4276 14.2795C11.5941 15.0968 10.6633 15.7975 9.65851 16.3637C11.1554 16.3053 12.6281 16.067 14.0262 15.6572C15.8757 15.1152 17.5448 14.2881 18.9458 13.2399C20.3463 12.1921 21.4439 10.95 22.2011 9.60007C22.6792 8.7479 23.0182 7.85937 23.2171 6.95427L16.3967 6.68868C16.1994 7.79983 15.8725 8.88513 15.4211 9.91947C14.706 11.5584 13.6907 13.041 12.4276 14.2795ZM4.95147 13.664L5.24001 6.25424L12.1388 6.52288C11.9994 7.11136 11.8082 7.68564 11.5672 8.23784C11.0634 9.39257 10.3535 10.4243 9.48367 11.2773C8.61407 12.13 7.60224 12.7869 6.50915 13.2169C6.00146 13.4166 5.48006 13.5659 4.95147 13.664Z" fill="#A7A7A7"/>
</g>
<defs>
<clipPath id="clip0_1_207">
<rect width="108.537" height="30.7477" fill="white" transform="translate(1.19642) rotate(2.23)"/>
</clipPath>
</defs>
</svg>
