<svg width="144" height="36" viewBox="0 0 144 36" fill="none" xmlns="http://www.w3.org/2000/svg">
<g clip-path="url(#clip0_1_193)">
<path d="M9.41734 15.8894C4.47634 16.4827 0.951877 20.9692 1.54523 25.9102L1.6115 26.462L3.19374 27.705L2.95783 25.7406C2.45816 21.5797 5.42611 17.8016 9.58697 17.302C13.7478 16.8023 17.5259 19.7702 18.0256 23.9311L18.2615 25.8955L19.5044 24.3133L19.4382 23.7615C18.8448 18.8205 14.3583 15.296 9.41734 15.8894ZM9.98279 20.598C7.6423 20.8791 5.97284 23.0042 6.2539 25.3447L6.93527 31.0186C6.96492 31.2656 6.78855 31.4901 6.54158 31.5197C6.42305 31.5339 6.30382 31.5004 6.20994 31.4266L1.26339 27.5407L1.50327 29.5383L5.33112 32.5453C5.72173 32.8522 6.21805 32.9915 6.71121 32.9323C7.73836 32.809 8.47121 31.8761 8.34787 30.8489L7.6665 25.1751C7.47913 23.6148 8.59212 22.198 10.1524 22.0106C11.7127 21.8232 13.1295 22.9362 13.3169 24.4965L13.9983 30.1704C14.1216 31.1975 15.0545 31.9304 16.0817 31.807C16.5748 31.7478 17.024 31.4949 17.3309 31.1043L18.1448 30.0683L19.3877 28.486L20.3379 27.2764L20.0981 25.2789L19.2192 26.3976L18.269 27.6072L17.026 29.1895L16.2122 30.2255C16.1384 30.3194 16.0305 30.3802 15.912 30.3944C15.665 30.4241 15.4405 30.2477 15.4109 30.0008L14.7295 24.3269C14.4484 21.9864 12.3233 20.317 9.98279 20.598ZM10.2655 22.9524C9.22533 23.0773 8.48332 24.0218 8.60824 25.062L9.2896 30.7359C9.47541 32.2831 8.37157 33.6883 6.82431 33.8741C6.08137 33.9632 5.33327 33.7539 4.74484 33.2916L1.66324 30.8704L1.90311 32.8679L3.86603 34.4103C4.75118 35.1057 5.87636 35.4208 6.99394 35.2867C9.32134 35.0072 10.9817 32.8936 10.7022 30.5662L10.0208 24.8924C9.98961 24.6323 10.1751 24.3962 10.4352 24.365C10.6952 24.3337 10.9313 24.5192 10.9626 24.7793L11.6439 30.4531C11.9234 32.7805 14.037 34.4409 16.3644 34.1614C17.4819 34.0271 18.5005 33.4545 19.1959 32.5694L20.7378 30.606L20.4979 28.6086L18.0772 31.6906C17.6149 32.279 16.9377 32.6595 16.1947 32.7488C14.6475 32.9346 13.2423 31.8308 13.0565 30.2835L12.3752 24.6096C12.2503 23.5694 11.3057 22.8274 10.2655 22.9524ZM9.70006 18.2437C6.05932 18.6809 3.46236 21.9867 3.89957 25.6275L4.24856 28.5336L5.8308 29.7766L5.31217 25.4578C4.96865 22.5973 7.00914 19.9998 9.8697 19.6563C12.7303 19.3128 15.3277 21.3533 15.6712 24.2138L16.1899 28.5326L17.4328 26.9503L17.0838 24.0442C16.6466 20.4034 13.3408 17.8065 9.70006 18.2437Z" fill="#A7A7A7"/>
<path d="M125.393 7.21631L128.783 6.80918C130.007 6.66216 131.216 6.86095 132.284 7.32495L132.173 6.40205L135.563 5.99492C139.312 5.54482 142.71 8.23188 143.158 11.9611L143.43 14.2213L141.169 14.4927L140.898 12.2326C140.6 9.74639 138.321 7.95652 135.835 8.25508L134.705 8.39079L134.798 9.16301C135.642 10.1506 136.213 11.4005 136.378 12.7754L136.649 15.0356L134.389 15.307L134.118 13.0468C133.819 10.5606 131.541 8.77078 129.054 9.06934L127.924 9.20505L128.739 15.9855L126.478 16.257L125.393 7.21631Z" fill="#A7A7A7"/>
<path d="M124.973 16.4568L118.193 17.2711C114.444 17.7212 111.048 15.0529 110.598 11.3048L110.326 9.04468L112.587 8.77326L112.858 11.0334C113.156 13.5196 115.416 15.3117 117.921 15.0109L122.441 14.4681L121.627 7.68758L123.887 7.41616L124.973 16.4568Z" fill="#A7A7A7"/>
<path d="M109.042 9.19885L109.313 11.459L101.403 12.409C100.16 12.5583 99.2646 13.6975 99.4139 14.9406C99.5632 16.1836 100.702 17.0786 101.945 16.9293L102.19 16.8999C102.755 16.832 103.298 16.5758 103.688 16.166L105.339 14.4775L105.409 14.4307L106.064 13.8363C107.064 12.9328 108.586 12.8837 109.643 13.7312C110.949 14.7399 111.067 16.6746 109.91 17.8643L109.487 18.3164L105.89 18.7484L108.288 16.2823C108.51 16.0646 108.467 15.7067 108.232 15.5056C108.043 15.3564 107.758 15.3715 107.585 15.526L106.947 16.0994L105.311 17.7479C104.545 18.5278 103.554 19.0289 102.462 19.1601L102.217 19.1895C99.7307 19.488 97.4523 17.6981 97.1537 15.212C96.8529 12.707 98.645 10.4474 101.131 10.1488L109.042 9.19885Z" fill="#A7A7A7"/>
<path d="M82.6969 12.3435L91.7375 11.2578C94.2237 10.9593 96.5021 12.7491 96.8007 15.2353C97.1015 17.7403 95.3094 19.9999 92.8232 20.2985L92.0322 20.3935C90.8267 20.5382 89.5927 20.2852 88.5605 19.6449L85.6469 17.8167L86.0427 21.1127L83.7826 21.3841L82.6969 12.3435ZM85.2307 14.3511L85.3009 14.935L89.7604 17.7048C90.3587 18.0724 91.0661 18.2358 91.763 18.1521L92.5541 18.0571C93.7971 17.9079 94.6921 16.7687 94.5428 15.5256C94.3913 14.2636 93.2543 13.3875 92.0112 13.5368L85.2307 14.3511Z" fill="#A7A7A7"/>
<path d="M82.6567 21.5195L80.3966 21.7909L79.3109 12.7502L81.5711 12.4788L82.6567 21.5195Z" fill="#A7A7A7"/>
<path d="M73.6187 20.312C75.5022 20.0858 76.828 18.3981 76.6019 16.5146L76.4661 15.3845L69.6857 16.1988C68.4426 16.348 67.5476 17.4873 67.6969 18.7303C67.8485 19.9923 68.9854 20.8684 70.2285 20.7191L73.6187 20.312ZM78.4549 12.8529L78.862 16.2432C79.2375 19.3697 77.0167 22.1967 73.8902 22.5721L70.4999 22.9793C68.0137 23.2778 65.7376 21.5068 65.4368 19.0018C65.1382 16.5156 66.9281 14.2372 69.4142 13.9386L78.4549 12.8529Z" fill="#A7A7A7"/>
<path d="M64.1434 14.5717L64.9599 21.371C65.0594 22.1997 64.8553 23.0458 64.3626 23.7164L60.7276 24.1529L62.3563 22.6008C62.6116 22.3408 62.7404 21.9814 62.6997 21.6424L62.5731 20.5877L60.1752 23.0537C59.324 23.9202 58.1849 24.4582 56.9795 24.603L56.1884 24.698C53.7022 24.9966 51.4261 23.2255 51.1252 20.7205C50.8267 18.2343 52.6165 15.9559 55.1027 15.6574L64.1434 14.5717ZM55.3741 17.9175C54.1311 18.0668 53.2361 19.206 53.3854 20.4491C53.5369 21.711 54.6739 22.5871 55.917 22.4378L56.708 22.3428C57.4049 22.2592 58.0558 21.9517 58.55 21.4529L62.227 17.706L62.1546 17.1033L55.3741 17.9175Z" fill="#A7A7A7"/>
<path d="M45.4737 23.6918C47.3571 23.4657 48.6829 21.7779 48.4567 19.8945L48.321 18.7644L41.5406 19.5787C40.2975 19.7279 39.4026 20.8671 39.5518 22.1102C39.7034 23.3722 40.8403 24.2483 42.0834 24.099L45.4737 23.6918ZM50.3098 16.2328L50.7169 19.6231C51.0924 22.7496 48.8716 25.5765 45.7451 25.952L42.3548 26.3591C39.8687 26.6577 37.5925 24.8867 37.2917 22.3816C36.9931 19.8955 38.783 17.6171 41.2692 17.3185L50.3098 16.2328Z" fill="#A7A7A7"/>
<path d="M27.2166 19.0062L27.6486 22.6036C27.6848 22.9049 27.8317 23.1739 28.0638 23.3562L29.646 24.5992C30.3633 25.1626 31.2538 25.4187 32.1579 25.3101L37.0737 24.7198L37.3452 26.98L32.4293 27.5703C30.9414 27.749 29.4187 27.3204 28.2373 26.3924L26.6551 25.1494C25.9566 24.5837 25.4947 23.7602 25.3884 22.875L24.9564 19.2776L27.2166 19.0062Z" fill="#A7A7A7"/>
</g>
<defs>
<clipPath id="clip0_1_193">
<rect width="142.749" height="18.97" fill="white" transform="translate(0 17.0203) rotate(-6.84776)"/>
</clipPath>
</defs>
</svg>
